<svg xmlns="http://www.w3.org/2000/svg" width="150" height="150" viewBox="0 0 150 150">
  <defs>
    <style>
      .cls-1, .cls-2 {
        fill-rule: evenodd;
      }

      .cls-2 {
        fill: none;
        stroke: #000;
        stroke-linecap: round;
        stroke-linejoin: round;
        stroke-width: 10px;
      }
    </style>
  </defs>
  <path id="EG" class="cls-1" d="M69.46,107.765v-8.7H39.533V77.926H62.824V69.8H39.533V51.427h27.6v-8.7H26.482v65.039H69.46Zm54.932-30.894H111.911V99.9a14.463,14.463,0,0,1-2.549.22q-9.492,0-14.963-6.827T88.928,75.223A36.2,36.2,0,0,1,91.345,61.59a17.77,17.77,0,0,1,16.963-11.833,30.424,30.424,0,0,1,5.207.5,52.244,52.244,0,0,1,5.713,1.338,30.191,30.191,0,0,1,5.164,2.018V43.3a61.592,61.592,0,0,0-16.524-2.2q-12.392,0-19.138,4.5A28.623,28.623,0,0,0,78.491,57.689,42.225,42.225,0,0,0,75,75.509q0,10.635,3.779,18.127A27.24,27.24,0,0,0,89.763,105.26a31.6,31.6,0,0,0,16,4.131,53.324,53.324,0,0,0,5.845-.352q3.163-.353,6.306-0.967a59.625,59.625,0,0,0,6.482-1.67V76.871Z"/>
  <path class="cls-2" d="M40.845,4.532h68a36,36,0,0,1,36,36v68a36,36,0,0,1-36,36h-68a36,36,0,0,1-36-36v-68A36,36,0,0,1,40.845,4.532Z"/>
</svg>
